<svg width="74" height="75" viewBox="0 0 74 75" fill="none" xmlns="http://www.w3.org/2000/svg">
<rect y="0.167969" width="74" height="74" rx="37" fill="#171F27"/>
<path d="M41.6179 15.0913C44.1334 16.0026 46.4937 17.4666 48.5104 19.4834C50.5778 21.5507 52.0643 23.979 52.9701 26.5656" stroke="#03C75A" stroke-width="2.82724" stroke-linecap="round"/>
<path d="M50.6287 59.0199C46.9451 62.7034 37.5117 59.2423 29.5586 51.2891C21.6055 43.336 18.1443 33.9027 21.8279 30.2191L24.2532 27.7938C25.9275 26.1194 28.6864 26.1637 30.4154 27.8926L34.172 31.6493C35.9009 33.3782 35.9452 36.1371 34.2709 37.8114L33.7499 38.3324C32.8459 39.2364 32.7575 40.6947 33.5975 41.7126C34.4077 42.6945 35.2812 43.6724 36.2283 44.6195C37.1753 45.5666 38.1533 46.4401 39.1351 47.2503C40.153 48.0903 41.6114 48.0018 42.5154 47.0978L43.0363 46.5769C44.7107 44.9026 47.4696 44.9468 49.1985 46.6757L52.9551 50.4324C54.6841 52.1613 54.7283 54.9202 53.054 56.5946L50.6287 59.0199Z" fill="#03C75A" stroke="#03C75A" stroke-width="2.82724"/>
<path d="M46.5684 26.5657C46.1086 25.4439 45.4232 24.3928 44.5123 23.482C43.6529 22.6225 42.6687 21.9638 41.6179 21.5059" stroke="#03C75A" stroke-width="2.82724" stroke-linecap="round"/>
</svg>
